<svg height="451pt" viewBox="0 0 451.95875 451" width="451pt" xmlns="http://www.w3.org/2000/svg">
    <path d="m443.78125 398.035156-66.769531-66.769531c-6.914063-6.914063-18.121094-6.914063-25.035157 0l-21.1875 21.1875c-6.914062 6.914063-6.914062 18.125 0 25.039063l66.769532 66.769531c6.914062 6.914062 18.125 6.914062 25.039062 0l21.183594-21.183594c6.914062-6.917969 6.914062-18.128906 0-25.042969zm0 0"
          fill="#007bff"/>
    <path d="m445.90625 395.917969-66.769531-66.773438c-3.910157-3.90625-9.113281-6.0625-14.640625-6.0625-5.53125 0-10.730469 2.15625-14.640625 6.0625l-21.1875 21.1875c-3.910157 3.910157-6.066407 9.109375-6.066407 14.640625s2.15625 10.730469 6.066407 14.640625l66.769531 66.769531c4.035156 4.039063 9.335938 6.054688 14.640625 6.054688 5.300781 0 10.601563-2.019531 14.640625-6.054688l21.183594-21.1875c8.074218-8.070312 8.074218-21.207031.003906-29.277343zm-4.246094 25.035156-21.183594 21.1875c-5.734374 5.738281-15.066406 5.734375-20.796874 0l-66.769532-66.769531c-2.777344-2.777344-4.308594-6.46875-4.308594-10.398438 0-3.925781 1.53125-7.621094 4.308594-10.394531l21.1875-21.1875c2.777344-2.777344 6.46875-4.304687 10.398438-4.304687 3.925781 0 7.617187 1.527343 10.398437 4.304687l66.769531 66.769531c5.730469 5.730469 5.730469 15.0625-.003906 20.792969zm0 0"
          fill="#0747a6"/>
    <path d="m279.855469 141.875c0 76.46875-61.988281 138.460938-138.460938 138.460938-76.46875 0-138.460937-61.992188-138.460937-138.460938 0-76.472656 61.992187-138.460938 138.460937-138.460938 76.472657 0 138.460938 61.988282 138.460938 138.460938zm0 0"
          fill="#007bff"/>
    <path d="m241.421875 41.847656c-55.15625-55.160156-144.902344-55.15625-200.054687 0-55.15625 55.152344-55.15625 144.898438 0 200.054688 27.578124 27.578125 63.800781 41.367187 100.027343 41.367187 36.226563 0 72.453125-13.789062 100.027344-41.367187 55.15625-55.15625 55.15625-144.902344 0-200.054688zm-4.242187 195.8125c-26.410157 26.410156-61.089844 39.617188-95.785157 39.613282-34.683593-.003907-69.378906-13.210938-95.785156-39.613282-52.816406-52.816406-52.816406-138.753906 0-191.570312 26.40625-26.410156 61.09375-39.613282 95.785156-39.613282 34.691407 0 69.378907 13.203126 95.785157 39.613282 52.816406 52.816406 52.816406 138.753906 0 191.570312zm0 0"
          fill="#0747a6"/>
    <path d="m252.683594 224.261719c-4.015625 5.417969-8.46875 10.597656-13.386719 15.515625-4.921875 4.917968-10.101563 9.371094-15.515625 13.390625l13.300781 13.296875 20.191407 20.1875 21.167968 21.160156 48.496094 48.488281 28.878906-28.875zm0 0"
          fill="#87796f"/>
    <path d="m357.9375 325.300781-103.128906-103.160156c-.621094-.613281-1.46875-.929687-2.34375-.871094-.871094.066407-1.667969.503907-2.1875 1.207031-3.964844 5.34375-8.375 10.453126-13.101563 15.183594-4.738281 4.730469-9.84375 9.140625-15.179687 13.097656-.703125.519532-1.140625 1.320313-1.207032 2.191407-.0625.871093.253907 1.722656.871094 2.339843l33.496094 33.488282c1.171875 1.171875 3.070312 1.171875 4.242188 0 1.171874-1.171875 1.171874-3.070313 0-4.242188l-31.066407-31.058594c4.574219-3.570312 8.964844-7.457031 13.085938-11.574218 4.113281-4.117188 7.996093-8.507813 11.574219-13.085938l98.582031 98.609375-24.632813 24.632813-46.375-46.363282c-1.171875-1.171874-3.074218-1.171874-4.246094 0-1.171874 1.171876-1.171874 3.070313 0 4.242188l48.5 48.484375c.585938.585937 1.351563.875 2.117188.875s1.539062-.289063 2.125-.875l28.875-28.878906c1.171875-1.171875 1.171875-3.070313 0-4.242188zm0 0"
          fill="#0747a6"/>
    <path d="m241.722656 141.875c0 55.410156-44.917968 100.328125-100.328125 100.328125-55.410156 0-100.328125-44.917969-100.328125-100.328125s44.917969-100.328125 100.328125-100.328125c55.410157 0 100.328125 44.917969 100.328125 100.328125zm0 0"
          fill="#8ac6dd"/>
    <path d="m214.457031 68.808594c-19.515625-19.515625-45.460937-30.265625-73.0625-30.265625-27.601562 0-53.546875 10.75-73.0625 30.265625-19.515625 19.519531-30.265625 45.464844-30.265625 73.0625 0 27.601562 10.75 53.550781 30.265625 73.066406 20.144531 20.144531 46.601563 30.210938 73.0625 30.210938 26.457031 0 52.917969-10.066407 73.0625-30.210938 19.515625-19.515625 30.265625-45.464844 30.265625-73.066406 0-27.597656-10.746094-53.542969-30.265625-73.0625zm-4.242187 141.886718c-37.945313 37.949219-99.691406 37.949219-137.640625 0-18.382813-18.382812-28.507813-42.824218-28.507813-68.820312s10.125-50.4375 28.507813-68.820312c18.378906-18.382813 42.824219-28.507813 68.820312-28.507813 25.996094 0 50.4375 10.125 68.820313 28.507813 18.382812 18.382812 28.507812 42.824218 28.507812 68.820312s-10.125 50.4375-28.507812 68.820312zm0 0"
          fill="#0747a6"/>
    <path d="m384.554688 133.359375c-1.949219 23.128906-26.050782 26.777344-26.050782 26.777344 20.695313.976562 25.851563 28.121093 25.851563 28.121093.441406-19.355468 26.640625-28.40625 26.640625-28.40625-19.625-1.175781-26.441406-26.492187-26.441406-26.492187zm0 0"
          fill="#d7e057"/>
    <path d="m411.175781 156.855469c-17.207031-1.027344-23.660156-24.046875-23.726562-24.28125-.378907-1.40625-1.71875-2.328125-3.164063-2.203125-1.449218.132812-2.597656 1.285156-2.71875 2.734375-1.71875 20.429687-22.625 23.925781-23.507812 24.0625-1.527344.230469-2.625 1.582031-2.546875 3.121093.082031 1.542969 1.316406 2.769532 2.855469 2.84375 18.054687.851563 22.996093 25.4375 23.046874 25.6875.273438 1.421876 1.515626 2.433594 2.941407 2.433594.085937 0 .167969-.003906.253906-.007812 1.527344-.128906 2.714844-1.386719 2.75-2.921875.386719-17.019531 24.382813-25.554688 24.625-25.640625 1.351563-.46875 2.183594-1.828125 1.988281-3.242188-.199218-1.417968-1.367187-2.5-2.796875-2.585937zm-27.128906 20.691406c-2.714844-6.261719-7.417969-13.8125-15.175781-17.75 5.863281-2.808594 12.816406-7.828125 16.402344-16.546875 3.105468 6.140625 8.402343 13.761719 16.667968 17.445312-6.011718 3.277344-13.84375 8.808594-17.894531 16.851563zm0 0"
          fill="#0747a6"/>
    <path d="m341.15625 167.320312c-1.375 16.355469-18.421875 18.941407-18.421875 18.941407 14.632813.6875 18.28125 19.886719 18.28125 19.886719.3125-13.691407 18.84375-20.089844 18.84375-20.089844-13.882813-.832032-18.703125-18.738282-18.703125-18.738282zm0 0"
          fill="#d7e057"/>
    <path d="m360.039062 183.0625c-11.53125-.691406-15.945312-16.371094-15.988281-16.53125-.378906-1.402344-1.714843-2.34375-3.164062-2.203125-1.453125.128906-2.597657 1.285156-2.71875 2.734375-1.160157 13.742188-15.296875 16.132812-15.886719 16.226562-1.523438.234376-2.625 1.582032-2.542969 3.125.078125 1.539063 1.3125 2.769532 2.851563 2.839844 12.074218.570313 15.449218 17.289063 15.480468 17.453125.269532 1.425781 1.515626 2.441407 2.941407 2.441407.082031 0 .167969-.003907.25-.011719 1.53125-.125 2.71875-1.382813 2.753906-2.921875.257813-11.417969 16.664063-17.265625 16.824219-17.324219 1.355468-.464844 2.1875-1.824219 1.992187-3.242187-.191406-1.417969-1.363281-2.503907-2.792969-2.585938zm-19.167968 13.589844c-1.847656-3.773438-4.679688-7.894532-8.894532-10.558594 3.710938-2.082031 7.394532-5.257812 9.742188-9.832031 2.113281 3.746093 5.308594 7.910156 9.882812 10.445312-3.699218 2.203125-7.980468 5.480469-10.730468 9.945313zm0 0"
          fill="#0747a6"/>
    <path d="m341.15625 114.003906c-1.375 16.359375-18.421875 18.941406-18.421875 18.941406 14.632813.6875 18.28125 19.886719 18.28125 19.886719.3125-13.6875 18.84375-20.089843 18.84375-20.089843-13.882813-.828126-18.703125-18.738282-18.703125-18.738282zm0 0"
          fill="#d7e057"/>
    <path d="m360.039062 129.75c-11.53125-.691406-15.945312-16.375-15.988281-16.53125-.378906-1.40625-1.714843-2.332031-3.164062-2.203125-1.453125.128906-2.597657 1.285156-2.71875 2.734375-1.160157 13.742188-15.296875 16.132812-15.886719 16.226562-1.523438.230469-2.625 1.582032-2.542969 3.121094.078125 1.542969 1.3125 2.769532 2.855469 2.84375 12.070312.566406 15.445312 17.289063 15.476562 17.453125.269532 1.425781 1.519532 2.441407 2.945313 2.441407.082031 0 .164063-.003907.25-.011719 1.53125-.125 2.714844-1.386719 2.75-2.921875.261719-11.417969 16.664063-17.269532 16.828125-17.324219 1.351562-.46875 2.1875-1.824219 1.992188-3.242187-.195313-1.417969-1.367188-2.503907-2.796876-2.585938zm-19.167968 13.589844c-1.847656-3.773438-4.679688-7.894532-8.894532-10.5625 3.710938-2.082032 7.394532-5.257813 9.742188-9.832032 2.113281 3.75 5.304688 7.910157 9.878906 10.449219-3.695312 2.199219-7.976562 5.480469-10.726562 9.945313zm0 0"
          fill="#0747a6"/>
    <path d="m441.667969 400.15625-66.78125-66.761719c-2.78125-2.78125-6.460938-4.320312-10.398438-4.320312-3.382812 0-6.601562 1.140625-9.203125 3.261719.421875.320312.820313.679687 1.203125 1.058593l66.757813 66.761719c2.78125 2.777344 4.300781 6.476562 4.300781 10.398438 0 3.917968-1.519531 7.621093-4.300781 10.398437l-21.179688 21.179687c-.378906.382813-.78125.742188-1.199218 1.082032 5.761718 4.640625 14.261718 4.28125 19.601562-1.082032l21.199219-21.179687c2.777343-2.777344 4.300781-6.480469 4.300781-10.398437 0-3.921876-1.523438-7.621094-4.300781-10.398438zm0 0"
          fill="#3572b0"/>
    <path d="m210.207031 73.054688c-18.960937-18.980469-43.878906-28.460938-68.820312-28.460938-3.941407 0-7.859375.242188-11.78125.71875 20.863281 2.5 41.0625 11.761719 57.042969 27.742188 18.378906 18.378906 28.5 42.820312 28.5 68.820312s-10.121094 50.4375-28.5 68.820312c-15.582032 15.578126-35.5 25.21875-57.042969 27.800782 3.882812.457031 7.820312.699218 11.78125.699218 26 0 50.441406-10.121093 68.820312-28.5 18.398438-18.382812 28.519531-42.820312 28.519531-68.820312s-10.121093-50.441406-28.519531-68.820312zm0 0"
          fill="#68a8bc"/>
</svg>